<?xml version="1.0" standalone="no"?>
<!DOCTYPE svg PUBLIC "-//W3C//DTD SVG 20010904//EN"
 "http://www.w3.org/TR/2001/REC-SVG-20010904/DTD/svg10.dtd">
<svg version="1.0" xmlns="http://www.w3.org/2000/svg"
 width="180.000000pt" height="180.000000pt" viewBox="0 0 180.000000 180.000000"
 preserveAspectRatio="xMidYMid meet">
<metadata>
Created by potrace 1.14, written by Peter Selinger 2001-2017
</metadata>
<g transform="translate(0.000000,180.000000) scale(0.100000,-0.100000)"
fill="#000000" stroke="none">
<path d="M506 1385 c-62 -30 -120 -87 -149 -145 -31 -63 -30 -200 1 -280 35
-88 117 -186 252 -300 137 -115 251 -224 268 -254 9 -18 14 -15 61 36 29 31
96 92 149 135 286 229 365 332 379 498 7 84 -11 150 -57 213 -124 172 -392
156 -483 -29 l-26 -50 -19 43 c-26 59 -94 123 -150 142 -69 24 -167 20 -226
-9z"/>
</g>
</svg>
